<svg version="1.1" xmlns="http://www.w3.org/2000/svg" xmlns:xlink="http://www.w3.org/1999/xlink" width="315.21149" height="272.11567" viewBox="1124.01732,508.77355,315.21149,272.11567"><g fill="#29292a" fill-rule="nonzero" stroke="#0c0f0a" stroke-width="1" stroke-linecap="butt" stroke-linejoin="miter" stroke-miterlimit="10" stroke-dasharray="" stroke-dashoffset="0" font-family="none" font-weight="none" font-size="none" text-anchor="none" style="mix-blend-mode: normal"><path d="M1310.42412,780.38922l0.38827,-1.02183l-0.21457,-1.12504l-2.37048,-2.71456l-0.98089,-2.5391l-0.80719,-1.02183l-5.17011,-2.04367l-0.73566,-1.0528l-0.24522,-0.94958l-1.25676,-1.0528l-1.67568,-2.85906l-2.68723,-2.93132l-0.6948,-1.26955l-0.07152,-1.54823l0.44958,-3.24096l-0.07152,-1.1973l-0.73566,-0.35093l-2.48288,-0.24772l-1.11372,-0.59865l-0.56197,-0.91861l-0.10218,-0.8154l1.60416,-1.89916l1.35894,-4.2628l0.14304,-3.24096l-1.46112,-6.69867l0.20435,-1.02183l0.83784,-1.47598v-1.69273l-0.5211,-2.04367l-1.50198,-3.3545l-2.2683,-11.32271l-6.386,-9.2068l-1.70634,-1.58952l-1.35894,-0.39222h-1.15459l-1.92091,1.37276l-0.5211,0.17546l-0.49044,-0.45415l-1.39981,-1.54823l-1.22611,-2.0127l-0.1737,-0.39222l0.10218,-0.6709l0.27588,-0.87733l-0.38827,-1.16633l-0.76632,-1.12504l-0.3474,-0.45415h-0.41892l-0.49044,0.07226l-0.3474,0.03096l-0.38827,-0.24772l-1.08306,-1.23858l-6.28383,-4.93369l-0.1737,-0.70187l1.64503,-1.97141l-0.27588,-1.37276l-0.6948,-1.30052l-5.47663,-5.39816l-4.57749,-1.58952l-1.81873,-1.41405l-0.49044,-1.0528l-0.66414,-3.3545l-0.21457,-0.62961l-0.41892,-0.35093l-2.51353,-1.47598l-1.28742,-1.54823l-2.29896,-1.26955l-0.90936,-1.26955l-0.98089,-5.07819l-2.09461,-2.50813l-1.0422,-2.32235l-1.46112,-1.51726l-1.39981,-2.11591l-2.02308,-1.79595l-2.09461,-5.50137l-1.25676,-1.62048l-1.35894,-0.49543l-1.28742,0.59865l-1.01154,0.87733l-0.5211,0.94958l-0.20435,1.54823l-0.49044,0.35093l-2.58505,0.07226l-0.80719,-1.12504l-3.10615,-7.64825l-1.22611,-2.08495l-5.27228,-6.17228l-2.33983,-5.60459l-0.8685,-0.1445l-1.15459,0.74315l-6.35535,0.1445l-5.09858,-3.38546l-1.15459,-1.26955l-1.08306,-2.04367l2.71788,-4.15958l0.10218,-1.58952l-0.80719,-0.56768l-3.94399,-1.8682l-3.73964,-2.85906l-0.80719,1.02183l-0.49044,1.97141l-0.5211,0.77411l-4.08704,1.47598l-0.94002,-0.10322l-0.66414,-1.16633l-0.14304,-1.66176l0.6948,-2.18817l-1.28742,-1.83723l-0.6948,-2.29138l-1.95156,-3.17904l0.98089,-2.64231l-0.3474,-1.76498l-0.8685,-1.7237l-1.70634,-2.21913l-0.49044,-2.6836l-1.50198,-2.21913l-0.80719,-0.52639l-3.2492,-0.35093l-0.76632,-0.74315l-1.18524,-3.28224l-0.31674,-2.81778l-1.64503,-1.69273l-1.11372,-0.39222l-0.20435,-2.96228l-0.94002,-1.66176l-3.45355,-3.0655l-2.48288,-1.26955l-0.73566,1.66176l-0.1737,3.41643l-0.73566,-0.24772l-6.7334,-3.45771l-1.50198,-1.69273l-2.86093,-5.8523l-1.08306,-0.45415l-4.92489,-0.59865l-1.74721,0.49543l-1.01154,-0.39222l-1.35894,-1.54823l-3.00397,-4.83048l-1.11372,-0.91861l-1.18524,-0.35093l-0.07152,-2.71456l-0.80719,-1.89916l0.10218,-0.52639l0.98089,-0.1445h4.50596l0.24522,-0.99087l-2.41135,-3.48867l-2.2683,-0.45415l-0.62328,-0.8154l-0.38827,-2.50813l-1.74721,-1.44502l-0.91079,-3.75813c0,0 -0.06455,-24.11645 0.06035,-24.24465c0.29376,-0.27784 314.13312,0.15915 314.13312,0.15915l-0.72755,270.86405z" id="Path 1"/></g></svg>